HIERARCHY
ROOT root
{
	OFFSET 0.000000 0.000000 0.000000
	CHANNELS 6 Xposition Yposition Zposition Zrotation Yrotation Xrotation
	JOINT lhip
	{
		OFFSET 0.058581 -0.082280 -0.017664
		CHANNELS 3 Zrotation Yrotation Xrotation
		JOINT lknee
		{
			OFFSET 0.043451 -0.386469 0.008037
			CHANNELS 3 Zrotation Yrotation Xrotation
			JOINT lankle
			{
				OFFSET -0.014790 -0.426874 -0.037428
				CHANNELS 3 Zrotation Yrotation Xrotation
				JOINT ltoe
				{
					OFFSET 0.041054 -0.060286 0.122042
					CHANNELS 3 Zrotation Yrotation Xrotation
					End Site
					{
						OFFSET 0.000000 0.000000 0.000000
					}
				}
			}
		}
	}
	JOINT rhip
	{
		OFFSET -0.060310 -0.090513 -0.013543
		CHANNELS 3 Zrotation Yrotation Xrotation
		JOINT rknee
		{
			OFFSET -0.043257 -0.383688 -0.004843
			CHANNELS 3 Zrotation Yrotation Xrotation
			JOINT rankle
			{
				OFFSET 0.019056 -0.420046 -0.034562
				CHANNELS 3 Zrotation Yrotation Xrotation
				JOINT rtoe
				{
					OFFSET -0.034840 -0.062106 0.130323
					CHANNELS 3 Zrotation Yrotation Xrotation
					End Site
					{
						OFFSET 0.000000 0.000000 0.000000
					}
				}
			}
		}
	}
	JOINT lowerback
	{
		OFFSET 0.004439 0.124404 -0.038385
		CHANNELS 3 Zrotation Yrotation Xrotation
		JOINT upperback
		{
			OFFSET 0.004488 0.137956 0.026820
			CHANNELS 3 Zrotation Yrotation Xrotation
			JOINT chest
			{
				OFFSET -0.002265 0.056032 0.002855
				CHANNELS 3 Zrotation Yrotation Xrotation
				JOINT lowerneck
				{
					OFFSET -0.013390 0.211636 -0.033468
					CHANNELS 3 Zrotation Yrotation Xrotation
					JOINT upperneck
					{
						OFFSET 0.010113 0.088937 0.050410
						CHANNELS 3 Zrotation Yrotation Xrotation
						End Site
						{
							OFFSET 0.000000 0.000000 0.000000
						}
					}
				}
				JOINT lclavicle
				{
					OFFSET 0.071702 0.114000 -0.018898
					CHANNELS 3 Zrotation Yrotation Xrotation
					JOINT lshoulder
					{
						OFFSET 0.122921 0.045205 -0.019046
						CHANNELS 3 Zrotation Yrotation Xrotation
						JOINT lelbow
						{
							OFFSET 0.255332 -0.015649 -0.022946
							CHANNELS 3 Zrotation Yrotation Xrotation
							JOINT lwrist
							{
								OFFSET 0.265709 0.012698 -0.007375
								CHANNELS 3 Zrotation Yrotation Xrotation
								End Site
								{
									OFFSET 0.000000 0.000000 0.000000
								}
							}
						}
					}
				}
				JOINT rclavicle
				{
					OFFSET -0.082954 0.112472 -0.023707
					CHANNELS 3 Zrotation Yrotation Xrotation
					JOINT rshoulder
					{
						OFFSET -0.113228 0.046853 -0.008472
						CHANNELS 3 Zrotation Yrotation Xrotation
						JOINT relbow
						{
							OFFSET -0.260127 -0.014369 -0.031269
							CHANNELS 3 Zrotation Yrotation Xrotation
							JOINT rwrist
							{
								OFFSET -0.269108 0.006794 -0.006027
								CHANNELS 3 Zrotation Yrotation Xrotation
								End Site
								{
									OFFSET 0.000000 0.000000 0.000000
								}
							}
						}
					}
				}
			}
		}
	}
}
MOTION
Frames: 14
Frame Time: 0.033333
1.036421 1.019179 1.012218 -91.292848 5.531049 82.426497 9.838230 -0.032303 1.434794 -3.711181 -16.379046 9.691054 -4.174683 8.040716 -8.660356 0.000000 -0.000000 0.000000 0.983682 6.081247 -7.507101 0.505781 3.852977 58.522646 2.880485 -12.439925 -42.104475 0.000000 -0.000000 0.000000 -0.948276 -2.438717 12.630548 2.831271 -1.325272 8.065982 -0.902710 -1.924057 4.628211 5.448636 4.079117 15.691638 0.975024 -1.349890 14.769332 -24.156394 8.461262 3.179101 -55.082524 -0.166792 3.981848 7.931699 -36.277819 1.990240 -1.716214 -0.274113 -15.101966 23.548533 -2.742886 -0.733465 51.422941 3.446132 7.219539 -13.270144 37.222044 -7.217258 0.624983 0.053739 -4.501610 
1.030145 1.007211 0.997322 -91.212603 6.166944 82.192752 9.291807 -0.442660 0.940655 -4.187985 -17.644992 12.511930 -1.479359 9.531571 -14.834164 0.000000 -0.000000 0.000000 0.885609 5.941959 -7.905174 0.801370 4.523919 61.947794 4.074909 -12.983585 -42.053587 0.000000 -0.000000 0.000000 -1.682157 -2.821981 13.865229 2.843490 -2.261167 9.164269 -0.764205 -1.937831 4.350486 5.274559 4.123974 15.397579 1.000341 -1.008523 13.687367 -24.487003 7.150784 3.191486 -54.346904 -0.837940 3.654974 8.195214 -35.893844 1.106472 -0.045655 0.073544 -15.477525 23.929320 -1.738432 -0.751300 51.579037 3.781167 7.580819 -14.177320 37.904691 -8.380065 0.077062 0.828517 -4.674215 
1.027774 0.996748 0.990562 -91.059657 5.877868 82.756048 8.120654 -1.329118 -0.501258 -4.747575 -16.586923 14.456777 0.292119 10.180113 -17.114150 0.000000 -0.000000 0.000000 -0.107694 6.933637 -9.691369 1.026399 4.677575 65.150900 4.581253 -12.401020 -40.135600 0.000000 -0.000000 0.000000 -3.184705 -1.966923 14.812726 3.010958 -2.702748 9.234266 -0.575514 -2.287316 4.151357 5.204724 3.885272 16.418735 1.480758 -1.495869 13.230167 -23.969779 5.693563 3.705182 -54.561211 -2.364915 3.635344 9.845138 -34.930113 -0.379788 -0.295865 0.586200 -14.972603 23.957341 -1.235206 -0.481019 53.134821 3.625444 8.101570 -16.227110 37.549930 -10.065615 1.499639 0.015214 -5.508430 
1.023378 0.988310 0.992924 -90.766720 5.964671 82.681580 7.819067 -1.718987 -0.067664 -4.899753 -16.630456 14.043271 -0.059204 9.828819 -16.002303 0.000000 -0.000000 0.000000 0.196959 7.194077 -10.112819 0.836713 6.097860 66.962475 4.168591 -12.051220 -36.290449 0.000000 -0.000000 0.000000 -4.045692 -1.093974 15.330394 2.959560 -2.683019 10.534138 -0.407582 -2.684067 3.716749 4.737539 3.253144 17.819510 2.493112 -1.280795 12.465351 -23.465078 4.202202 4.560879 -54.839431 -3.829086 3.373893 11.820678 -35.499718 -2.318014 0.836082 1.666382 -14.548150 23.796865 -0.769519 -0.183954 54.927770 3.410057 7.970456 -16.786517 36.505202 -10.430621 2.725056 -0.464054 -5.707977 
1.019563 0.979326 0.998376 -90.363710 6.500242 83.240437 7.574418 -2.151822 0.964070 -3.991008 -16.928910 11.280224 -0.005411 10.314461 -15.011048 0.000000 -0.000000 0.000000 0.138116 7.793798 -10.722668 0.619758 5.756230 66.980060 4.541825 -11.434565 -33.419110 0.000000 -0.000000 0.000000 -3.856222 -1.375924 15.449742 2.576552 -2.426457 10.614408 -0.672412 -2.445253 3.812892 4.701072 3.072976 18.029822 3.157636 -1.627952 12.549226 -22.807285 4.199744 4.596816 -55.207059 -4.765241 3.785930 12.493813 -37.310661 -3.225855 2.251118 1.257236 -14.870111 23.103515 -1.154086 0.100761 56.583075 2.475139 8.476242 -16.347243 36.714629 -9.203377 2.681482 -0.176041 -5.452928 
1.016361 0.970376 1.003672 -89.508098 7.064074 84.464588 7.590436 -2.472621 1.060303 -3.351018 -16.793271 8.755692 -0.152426 10.197195 -14.456387 0.000000 -0.000000 0.000000 -0.473967 7.911537 -11.636021 0.722704 4.636925 66.213429 5.170190 -10.822231 -31.099195 0.000000 -0.000000 0.000000 -3.637869 -1.741289 15.124003 2.542517 -2.306235 9.833783 -0.596467 -2.528722 4.142932 4.466187 2.678993 17.710055 3.247598 -1.525217 12.606697 -23.092579 5.289048 3.977680 -54.947763 -5.171709 4.405592 12.048535 -39.938290 -3.269137 1.735302 0.444942 -15.322256 22.935159 -2.528270 -0.418507 56.581541 1.204333 9.064881 -15.508879 37.270681 -7.987880 2.852243 0.094409 -3.626258 
1.012900 0.962517 1.006943 -88.325033 7.408793 85.273782 7.721393 -2.709597 1.285116 -3.247736 -16.974171 6.786987 -0.276760 9.450631 -13.698110 0.000000 -0.000000 0.000000 -1.337146 7.773070 -11.654560 0.658624 3.353398 65.428281 5.273960 -10.220518 -28.504402 0.000000 -0.000000 0.000000 -3.786722 -1.740198 14.639861 2.780635 -2.529587 9.952438 -0.367004 -2.717009 4.106042 4.492038 2.323842 17.170368 3.462064 -1.785711 12.433397 -23.382550 5.811799 3.414246 -54.789899 -5.312218 5.032257 11.945172 -42.054361 -3.638513 0.397017 -0.254278 -15.820994 22.862706 -3.620628 -0.917579 56.250971 -0.304187 9.198536 -15.666952 37.647544 -8.256593 4.097650 0.154370 -3.099063 
1.008819 0.955220 1.008307 -87.437921 7.784939 85.611267 7.694335 -2.403792 1.703628 -3.067729 -17.674529 5.687858 0.037770 8.978041 -13.234672 0.000000 -0.000000 0.000000 -1.762468 7.145010 -11.500722 0.818640 3.132934 65.148358 5.640665 -10.021616 -27.023536 0.000000 -0.000000 0.000000 -3.861461 -1.762642 15.138934 2.895975 -2.519483 9.150276 -0.262120 -2.992235 4.095960 4.821142 2.025602 16.784106 3.649408 -1.776340 12.429583 -23.346557 6.491149 3.252503 -54.724617 -5.436475 5.400052 11.157690 -43.602713 -2.605437 0.436891 -0.382122 -16.103251 22.914331 -4.582289 -1.173228 56.098649 -1.584705 8.968949 -15.955666 37.169101 -9.805903 3.883344 0.361904 -3.329823 
1.005572 0.948136 1.008174 -87.248678 8.046636 85.711828 7.414361 -2.472666 2.057074 -2.850226 -17.677846 5.077943 0.392048 9.099318 -13.332176 0.000000 -0.000000 0.000000 -2.107242 7.200574 -12.102693 0.486465 2.820382 66.055905 5.897952 -9.941171 -24.061922 0.000000 -0.000000 0.000000 -4.047381 -1.643902 14.946139 3.005649 -2.504072 9.542522 -0.253163 -3.045185 4.195130 5.034592 1.679956 16.458910 3.978443 -1.884032 12.108577 -23.576037 6.262301 2.991307 -54.605851 -5.920341 5.646428 11.434261 -43.551393 -3.087511 0.525740 -0.270169 -15.655790 22.889613 -5.033921 -1.555570 56.217114 -2.099661 8.781726 -16.642121 35.702592 -11.683934 3.596532 -0.182068 -4.149992 
1.004234 0.941699 1.007454 -88.090318 7.982292 85.945961 6.751925 -3.169832 2.018996 -2.721903 -16.924091 5.049568 0.939277 9.986512 -13.657026 0.000000 -0.000000 0.000000 -2.644979 8.484103 -14.189757 -0.085812 2.354495 68.342167 5.391627 -10.212029 -21.791907 0.000000 -0.000000 0.000000 -4.517873 -1.323205 14.712110 3.036800 -2.200376 9.500590 -0.290485 -3.047111 4.277746 5.339594 1.688322 16.689623 3.806805 -1.886103 12.316373 -23.763998 5.951965 3.062975 -54.732340 -6.681673 5.617097 12.020314 -41.992761 -3.925729 0.420521 -0.411150 -14.346137 23.110550 -5.397753 -1.410598 55.905459 -1.932021 8.637281 -16.824911 33.894453 -12.249441 3.136042 -0.099275 -4.014593 
1.002181 0.935929 1.007935 -88.476827 8.314106 85.491512 6.633934 -3.202908 2.712830 -2.740057 -16.986920 5.099169 1.128266 10.358539 -13.831841 0.000000 -0.000000 0.000000 -2.258334 8.834240 -15.677939 -0.701331 1.832792 70.953710 5.031671 -11.074398 -21.399009 0.000000 -0.000000 0.000000 -4.552210 -1.781737 15.168302 3.020823 -2.018429 10.110499 -0.331487 -3.077542 4.043384 5.356033 1.835007 16.768592 3.756834 -1.574026 12.279969 -24.156716 5.669299 2.568316 -54.899271 -7.008532 5.687369 12.790615 -39.853926 -4.813809 1.088890 0.112605 -13.797558 23.279065 -5.129702 -1.566588 55.520421 -2.226729 8.863226 -16.825546 32.907728 -11.926302 2.838433 -0.085209 -4.053902 
0.998886 0.932909 1.007817 -88.422900 9.588070 85.572732 8.049483 -2.162228 2.679465 -3.067857 -17.550268 5.388882 1.127790 9.619161 -14.015060 0.000000 -0.000000 0.000000 -0.634594 8.505352 -17.721755 -1.568336 0.454028 73.538747 3.585976 -11.702283 -22.119441 0.000000 -0.000000 0.000000 -3.794221 -2.528210 15.172879 3.334365 -2.134075 9.721450 -0.359813 -3.296899 4.338413 5.291225 1.648751 17.436630 3.800947 -1.681373 12.318347 -23.943561 5.449398 3.541222 -55.927547 -7.645225 4.749321 13.380453 -37.700049 -5.270185 1.304111 0.212589 -14.088598 22.749933 -5.427849 -0.626372 55.695211 -1.878549 8.005582 -16.089929 33.029197 -9.472697 2.700623 0.044656 -4.543937 
0.999812 0.926610 1.008760 -89.108730 8.976388 85.317124 6.716206 -2.866402 3.290773 -2.644709 -17.025098 4.797721 1.236217 10.607958 -13.793419 0.000000 -0.000000 0.000000 -1.191004 9.699613 -19.596090 -1.613853 -0.574401 75.079971 4.928246 -11.594844 -20.950408 0.000000 -0.000000 0.000000 -4.170777 -2.843407 15.636285 2.941693 -2.233629 10.949489 -0.344918 -3.505997 3.410798 4.551909 2.137786 17.567204 3.777770 -0.499036 11.857374 -24.569161 4.563456 3.202732 -55.523491 -6.393535 5.015175 14.072792 -37.024654 -7.341218 1.787991 1.062999 -13.567093 22.761866 -4.402006 -1.133260 55.575477 -2.952268 8.819754 -16.705270 33.129101 -11.218720 2.506357 -0.502243 -2.966270 
0.999300 0.923257 1.009563 -88.953597 9.095081 85.312356 6.558636 -2.710201 3.635558 -2.438866 -17.023079 4.169320 1.338779 10.419905 -13.603299 0.000000 -0.000000 0.000000 -0.979296 9.093246 -21.886935 -1.693591 -3.139971 76.058738 4.066973 -11.841707 -20.130879 0.000000 -0.000000 0.000000 -3.994061 -3.290561 16.276754 2.961902 -2.624394 10.121843 -0.295360 -3.966640 3.789845 4.371001 1.983825 18.005549 3.936285 -0.388772 11.690076 -24.999676 4.534444 3.541525 -55.414355 -6.473311 4.406899 13.019438 -35.167250 -6.938321 1.165572 0.732029 -12.446578 22.728029 -5.044354 -1.015399 55.383553 -2.893293 8.466497 -16.143273 33.688213 -10.904300 1.787390 -0.009891 -2.849096 
